<svg xmlns="http://www.w3.org/2000/svg" width="24" height="24" viewBox="0 0 24 24">
    <path data-name="Path 52295" d="M11.5 23A11.5 11.5 0 1 0 0 11.5 11.5 11.5 0 0 0 11.5 23z" style="fill:none;stroke:#010302" transform="translate(.5 .5)"/>
    <path data-name="Path 52296" d="M134.334 122.548c-.754-.635-1.52-1.019-2.265-.385l-.445.383c-.326.278-.931 1.577-3.271-1.071s-.947-3.056-.621-3.331l.447-.383c.741-.635.461-1.434-.073-2.257l-.323-.5c-.537-.821-1.122-1.36-1.865-.726l-.4.345a3.7 3.7 0 0 0-1.469 2.453c-.268 1.744.577 3.74 2.514 5.931s3.829 3.293 5.623 3.273a3.807 3.807 0 0 0 2.673-1.089l.4-.346c.741-.634.281-1.279-.474-1.915z" transform="translate(-117.803 -108.141)" style="fill:#010302"/>
</svg>
