<svg xmlns="http://www.w3.org/2000/svg" width="60" height="60" viewBox="0 0 60 60">
    <defs>
        <clipPath id="2zs1xqaoqa">
            <path data-name="Rectangle 2903" d="M0 0h60v60H0z"/>
        </clipPath>
    </defs>
    <g data-name="Logo 2" style="clip-path:url(#2zs1xqaoqa)">
        <g data-name="3">
            <g data-name="Group 610">
                <path data-name="search (3)" d="M12.255 11.736 9.187 8.545A5.2 5.2 0 1 0 5.2 10.4a5.148 5.148 0 0 0 2.981-.942l3.091 3.215a.679.679 0 0 0 .978-.941zM5.2 1.354A3.846 3.846 0 1 1 1.358 5.2 3.846 3.846 0 0 1 5.2 1.354z" transform="rotate(-12.007 127.754 -103.336)" style="stroke:#04a777;fill:#04a777"/>
                <path data-name="Path 1592" d="M461.3 266.639a1.322 1.322 0 0 1-.741-.227l-16.951-11.437-16.952 11.437a1.327 1.327 0 1 1-1.527-2.171l.042-.029 17.694-11.937a1.328 1.328 0 0 1 1.484 0l17.693 11.937a1.327 1.327 0 0 1-.744 2.427z" transform="translate(-413.437 -241.217)" style="fill:#04a777"/>
            </g>
            <g data-name="Group 611">
                <path data-name="Path 1593" d="M470.682 270.908a1.327 1.327 0 0 1-1.327-1.327V266.1a1.327 1.327 0 1 1 2.654 0v3.478a1.326 1.326 0 0 1-1.326 1.327z" transform="translate(-449.466 -251.455)" style="fill:#04a777"/>
            </g>
        </g>
        <g data-name="Group 612">
            <path data-name="Path 1594" d="M406.835 401.566v-5.405l-2.1 4.028h-.863l-2.105-4.028v5.405h-1.587V393.4h1.7l2.415 4.646 2.441-4.646h1.691v8.165z" transform="translate(-393.819 -354.69)" style="fill:#04a777"/>
            <path data-name="Path 1595" d="M447.8 411.514a3.02 3.02 0 0 0 .379.086 2.062 2.062 0 0 0 .31.029.655.655 0 0 0 .276-.061.593.593 0 0 0 .23-.2 1.98 1.98 0 0 0 .207-.4q.1-.253.218-.632l-2.38-6.027h1.587l1.632 4.691 1.449-4.692h1.449l-2.53 7.223a2.158 2.158 0 0 1-.747 1.038 2.1 2.1 0 0 1-1.311.4 2.545 2.545 0 0 1-.373-.029 2.391 2.391 0 0 1-.4-.1z" transform="translate(-431.515 -363.466)" style="fill:#04a777"/>
            <path data-name="Path 1596" d="M489.939 401.036v.529H484.5V393.4h5.336v.529h-4.75v3.208h4.15v.506h-4.15v3.393z" transform="translate(-461.649 -354.69)" style="fill:#04a777"/>
            <path data-name="Path 1597" d="M518.962 410.23a3.827 3.827 0 0 1-1.322-.23 3.047 3.047 0 0 1-1.1-.69l.287-.391a3.363 3.363 0 0 0 1 .644 3.04 3.04 0 0 0 1.139.206 2.19 2.19 0 0 0 1.26-.327 1.048 1.048 0 0 0 .477-.915.854.854 0 0 0-.122-.466.973.973 0 0 0-.363-.322 2.987 2.987 0 0 0-.6-.236q-.356-.1-.828-.218-.506-.115-.88-.23a2.374 2.374 0 0 1-.615-.276 1.067 1.067 0 0 1-.362-.391 1.255 1.255 0 0 1-.122-.586 1.684 1.684 0 0 1 .173-.782 1.548 1.548 0 0 1 .477-.552 2.2 2.2 0 0 1 .7-.327 3.186 3.186 0 0 1 .845-.109 3.083 3.083 0 0 1 1.243.236 2.183 2.183 0 0 1 .84.6l-.322.31a1.821 1.821 0 0 0-.776-.518 2.963 2.963 0 0 0-1.018-.173 2.729 2.729 0 0 0-.627.069 1.511 1.511 0 0 0-.511.218 1.076 1.076 0 0 0-.346.386 1.168 1.168 0 0 0-.126.558.9.9 0 0 0 .086.427.732.732 0 0 0 .276.276 2.015 2.015 0 0 0 .488.2q.3.087.712.19.564.138 1 .265a2.882 2.882 0 0 1 .732.311 1.36 1.36 0 0 1 .449.437 1.209 1.209 0 0 1 .155.644 1.525 1.525 0 0 1-.627 1.281 2.693 2.693 0 0 1-1.672.481z" transform="translate(-487.419 -363.24)" style="fill:#04a777"/>
            <path data-name="Path 1598" d="M547.727 401.845q-.047.024-.156.086a1.608 1.608 0 0 1-.276.122 3.376 3.376 0 0 1-.374.1 2.063 2.063 0 0 1-.449.046 1.461 1.461 0 0 1-.454-.069 1.1 1.1 0 0 1-.374-.208.975.975 0 0 1-.253-.333 1.059 1.059 0 0 1-.093-.46v-4.508h-.84v-.471h.84v-2.048h.575v2.048h1.392v.471h-1.392v4.37a.577.577 0 0 0 .23.5.863.863 0 0 0 .518.167 1.444 1.444 0 0 0 .615-.122c.173-.081.278-.133.316-.155z" transform="translate(-509.881 -355.257)" style="fill:#04a777"/>
            <path data-name="Path 1599" d="M565.776 410.222a2.052 2.052 0 0 1-1.4-.535 1.73 1.73 0 0 1-.42-.586 1.79 1.79 0 0 1-.15-.732 1.418 1.418 0 0 1 .183-.713 1.766 1.766 0 0 1 .512-.558 2.543 2.543 0 0 1 .787-.366 3.67 3.67 0 0 1 1.012-.132 5.638 5.638 0 0 1 .972.086 4.843 4.843 0 0 1 .88.236v-.587a1.862 1.862 0 0 0-.483-1.351 1.735 1.735 0 0 0-1.311-.5 2.629 2.629 0 0 0-.926.183 4.731 4.731 0 0 0-.995.529l-.219-.391a3.923 3.923 0 0 1 2.185-.782 2.29 2.29 0 0 1 1.7.626 2.353 2.353 0 0 1 .621 1.731v2.92q0 .288.253.288v.518a1.703 1.703 0 0 1-.231.023.47.47 0 0 1-.366-.155.657.657 0 0 1-.16-.374v-.495a2.684 2.684 0 0 1-1.058.828 3.379 3.379 0 0 1-1.386.289zm.115-.461a2.932 2.932 0 0 0 1.225-.253 2.1 2.1 0 0 0 .854-.667.769.769 0 0 0 .183-.46v-1.058a4.621 4.621 0 0 0-.862-.244 5.241 5.241 0 0 0-.932-.081 3.166 3.166 0 0 0-.816.1 2.162 2.162 0 0 0-.633.271 1.247 1.247 0 0 0-.408.42 1.067 1.067 0 0 0-.144.549 1.406 1.406 0 0 0 .115.563 1.318 1.318 0 0 0 .322.454 1.524 1.524 0 0 0 .488.3 1.647 1.647 0 0 0 .607.11z" transform="translate(-525.445 -363.232)" style="fill:#04a777"/>
            <path data-name="Path 1600" d="M597.876 401.845a3.003 3.003 0 0 0-.156.086 1.636 1.636 0 0 1-.276.122 3.364 3.364 0 0 1-.374.1 2.053 2.053 0 0 1-.449.046 1.463 1.463 0 0 1-.455-.069 1.089 1.089 0 0 1-.373-.208.982.982 0 0 1-.253-.333 1.065 1.065 0 0 1-.092-.46v-4.508h-.84v-.471h.84v-2.048h.575v2.048h1.391v.471h-1.391v4.37a.577.577 0 0 0 .23.5.861.861 0 0 0 .518.167 1.45 1.45 0 0 0 .616-.122c.172-.081.277-.133.316-.155z" transform="translate(-550.22 -355.257)" style="fill:#04a777"/>
            <path data-name="Path 1601" d="M616.563 410.231a2.793 2.793 0 0 1-1.173-.247 2.9 2.9 0 0 1-.937-.681 3.226 3.226 0 0 1-.845-2.2 3.17 3.17 0 0 1 .84-2.168 2.86 2.86 0 0 1 .926-.662 2.9 2.9 0 0 1 2.329.005 2.933 2.933 0 0 1 .931.668 3.052 3.052 0 0 1 .61.977 3.216 3.216 0 0 1 .218 1.179v.144a.316.316 0 0 1-.012.109h-5.244a2.658 2.658 0 0 0 .244.96 2.72 2.72 0 0 0 .523.764 2.352 2.352 0 0 0 .732.506 2.154 2.154 0 0 0 .886.183 2.195 2.195 0 0 0 .61-.086 2.5 2.5 0 0 0 .558-.235 2.018 2.018 0 0 0 .46-.362 1.7 1.7 0 0 0 .316-.465l.506.138a1.908 1.908 0 0 1-.374.592 2.512 2.512 0 0 1-.575.466 2.94 2.94 0 0 1-.719.305 2.976 2.976 0 0 1-.81.11zm2.346-3.336a2.719 2.719 0 0 0-.235-.965 2.591 2.591 0 0 0-.517-.753 2.326 2.326 0 0 0-.732-.495 2.29 2.29 0 0 0-1.77 0 2.324 2.324 0 0 0-.732.495 2.384 2.384 0 0 0-.506.758 2.912 2.912 0 0 0-.225.961z" transform="translate(-565.503 -363.241)" style="fill:#04a777"/>
        </g>
    </g>
</svg>
