<svg xmlns="http://www.w3.org/2000/svg" width="24" height="24" viewBox="0 0 24 24">
    <path data-name="Path 52295" d="M11.5 23A11.5 11.5 0 1 0 0 11.5 11.5 11.5 0 0 0 11.5 23z" style="fill:none;stroke:#010302" transform="translate(.5 .5)"/>
    <path d="m1.664 292.231 6.379 4.4.143-.1.334-.231.014-.009 5.886-4.061zm13.627.419-5.8 4 5.8 4.781zm-14.5 0v8.763l5.773-4.78zm6.5 4.483-5.768 4.777h13.024l-5.774-4.762-.453.313a.5.5 0 0 1-.556 0z" transform="translate(3.956 -285.071)" style="fill:#010302"/>
</svg>
